<?xml version="1.0" encoding="UTF-8" standalone="no"?>
<svg
   xmlns="http://www.w3.org/2000/svg"
   height="72.075066"
   width="300"
   viewBox="0 0 300 72.075066"
   class="iconLeft"
   version="1.1"
   id="svg16">
  <defs
     data-v-fde0c5aa=""
     id="defs2">
    <!---->
  </defs>
  <rect
     data-v-fde0c5aa=""
     fill="#002c73"
     x="0"
     y="0"
     width="300"
     height="72.075066"
     class="logo-background-square"
     id="rect4"
     style="stroke-width:0.490153" />
  <defs
     data-v-fde0c5aa=""
     id="defs6">
    <!---->
  </defs>
  <g
     data-v-fde0c5aa=""
     id="c0d9f9c3-735a-42df-9465-ec0d100f8714"
     fill="#ffffff"
     transform="matrix(3.6463042,0,0,3.6463042,95.405836,11.716764)">
    <path
       d="M 7.83,3.22 V 2.21 h -6.7 v 9.27 H 2.18 V 7.46 H 7.21 V 6.44 H 2.18 V 3.22 Z m 7.02,8.26 v -7 H 13.8 v 4.03 c 0,1.26 -0.95,2.13 -2.11,2.13 -1.15,0 -1.96,-0.84 -1.96,-2.11 V 4.48 H 8.68 v 4.07 c 0,1.99 1.36,3.04 2.8,3.04 1.13,0 1.82,-0.53 2.32,-1.2 v 1.09 z M 20.3,4.37 c -1.74,0 -2.44,1.36 -2.58,1.83 V 4.48 h -1.05 v 7 h 1.05 V 8.4 c 0,-1.54 0.96,-2.98 2.52,-2.98 h 0.13 V 4.37 Z m 1.2,0.11 v 7 h 1.05 V 7.45 c 0,-1.26 0.96,-2.13 2.12,-2.13 1.15,0 1.96,0.84 1.96,2.11 v 4.05 h 1.05 V 7.41 c 0,-1.99 -1.36,-3.04 -2.8,-3.04 -1.14,0 -1.82,0.53 -2.33,1.2 V 4.48 Z m 7.93,7 h 1.05 v -7 H 29.43 Z M 29.39,1.93 V 3.3 h 1.13 V 1.93 Z m 7.95,3.53 V 4.48 h -5.46 v 0.97 h 4.13 l -4.19,5.04 v 0.99 h 5.52 V 10.5 h -4.2 z m 4.41,5.18 c -1.42,0 -2.33,-0.99 -2.48,-2.24 h 5.87 V 7.98 c 0,-2 -1.33,-3.61 -3.48,-3.61 -2.14,0 -3.47,1.61 -3.47,3.61 0,2 1.4,3.61 3.54,3.61 1.67,0 2.71,-0.87 3.2,-2.13 h -1.15 c -0.38,0.7 -1.05,1.18 -2.03,1.18 z M 41.66,5.32 c 1.35,0 2.19,0.91 2.38,2.1 h -4.76 c 0.2,-1.19 1.04,-2.1 2.38,-2.1 z"
       id="path8" />
  </g>
  <defs
     data-v-fde0c5aa=""
     id="defs11">
    <!---->
  </defs>
  <g
     data-v-fde0c5aa=""
     id="1bed2353-787f-4b0a-a77f-85415252f396"
     stroke="none"
     fill="#ffd009"
     transform="matrix(0.81624841,0,0,0.81624841,21.634411,-3.7067063)">
    <path
       d="m 79.5,81.458 h -57 V 41.27 L 51,16.729 79.5,41.27 Z m -54,-3 h 51 V 42.646 L 51,20.688 25.5,42.646 Z"
       id="path13" />
  </g>
  <!---->
</svg>
